<mxfile host="Electron" agent="Mozilla/5.0 (Windows NT 10.0; Win64; x64) AppleWebKit/537.36 (KHTML, like Gecko) draw.io/28.1.2 Chrome/138.0.7204.243 Electron/37.4.0 Safari/537.36" version="28.1.2">
  <diagram name="Page-1" id="lLlWKDyZlexMHmhOkQkl">
    <mxGraphModel dx="1453" dy="895" grid="1" gridSize="10" guides="1" tooltips="1" connect="1" arrows="1" fold="1" page="1" pageScale="1" pageWidth="850" pageHeight="1100" math="0" shadow="0">
      <root>
        <mxCell id="0" />
        <mxCell id="1" parent="0" />
        <mxCell id="yw6frmniTJjpFVmSC9h--1" value="User 1" style="rounded=0;whiteSpace=wrap;html=1;" vertex="1" parent="1">
          <mxGeometry x="155" y="290" width="120" height="60" as="geometry" />
        </mxCell>
        <mxCell id="yw6frmniTJjpFVmSC9h--2" value="&lt;p data-pm-slice=&quot;1 1 []&quot;&gt;User 3&lt;/p&gt;" style="rounded=0;whiteSpace=wrap;html=1;" vertex="1" parent="1">
          <mxGeometry x="435" y="290" width="120" height="60" as="geometry" />
        </mxCell>
        <mxCell id="yw6frmniTJjpFVmSC9h--3" value="&lt;p data-pm-slice=&quot;1 1 []&quot;&gt;User 2&lt;/p&gt;" style="rounded=0;whiteSpace=wrap;html=1;" vertex="1" parent="1">
          <mxGeometry x="295" y="290" width="120" height="60" as="geometry" />
        </mxCell>
        <mxCell id="yw6frmniTJjpFVmSC9h--4" value="Software" style="rounded=0;whiteSpace=wrap;html=1;" vertex="1" parent="1">
          <mxGeometry x="365" y="400" width="120" height="60" as="geometry" />
        </mxCell>
        <mxCell id="yw6frmniTJjpFVmSC9h--5" value="&lt;p data-pm-slice=&quot;1 1 []&quot;&gt;User4&lt;/p&gt;" style="rounded=0;whiteSpace=wrap;html=1;" vertex="1" parent="1">
          <mxGeometry x="575" y="290" width="120" height="60" as="geometry" />
        </mxCell>
        <mxCell id="yw6frmniTJjpFVmSC9h--6" value="System Software" style="rounded=0;whiteSpace=wrap;html=1;" vertex="1" parent="1">
          <mxGeometry x="165" y="490" width="180" height="60" as="geometry" />
        </mxCell>
        <mxCell id="yw6frmniTJjpFVmSC9h--7" value="Application Software" style="rounded=0;whiteSpace=wrap;html=1;" vertex="1" parent="1">
          <mxGeometry x="500" y="490" width="180" height="60" as="geometry" />
        </mxCell>
        <mxCell id="yw6frmniTJjpFVmSC9h--8" value="Operating System" style="rounded=0;whiteSpace=wrap;html=1;" vertex="1" parent="1">
          <mxGeometry x="335" y="580" width="180" height="60" as="geometry" />
        </mxCell>
        <mxCell id="yw6frmniTJjpFVmSC9h--28" value="" style="edgeStyle=orthogonalEdgeStyle;rounded=0;orthogonalLoop=1;jettySize=auto;html=1;" edge="1" parent="1" source="yw6frmniTJjpFVmSC9h--9" target="yw6frmniTJjpFVmSC9h--12">
          <mxGeometry relative="1" as="geometry" />
        </mxCell>
        <mxCell id="yw6frmniTJjpFVmSC9h--29" value="" style="edgeStyle=orthogonalEdgeStyle;rounded=0;orthogonalLoop=1;jettySize=auto;html=1;" edge="1" parent="1" source="yw6frmniTJjpFVmSC9h--9" target="yw6frmniTJjpFVmSC9h--12">
          <mxGeometry relative="1" as="geometry" />
        </mxCell>
        <mxCell id="yw6frmniTJjpFVmSC9h--9" value="Hardware" style="rounded=0;whiteSpace=wrap;html=1;" vertex="1" parent="1">
          <mxGeometry x="365" y="690" width="120" height="60" as="geometry" />
        </mxCell>
        <mxCell id="yw6frmniTJjpFVmSC9h--10" value="CPU" style="rounded=0;whiteSpace=wrap;html=1;" vertex="1" parent="1">
          <mxGeometry x="215" y="790" width="120" height="60" as="geometry" />
        </mxCell>
        <mxCell id="yw6frmniTJjpFVmSC9h--11" value="I/O" style="rounded=0;whiteSpace=wrap;html=1;" vertex="1" parent="1">
          <mxGeometry x="515" y="790" width="120" height="60" as="geometry" />
        </mxCell>
        <mxCell id="yw6frmniTJjpFVmSC9h--12" value="RAM" style="rounded=0;whiteSpace=wrap;html=1;" vertex="1" parent="1">
          <mxGeometry x="365" y="790" width="120" height="60" as="geometry" />
        </mxCell>
        <mxCell id="yw6frmniTJjpFVmSC9h--14" value="" style="curved=1;endArrow=classic;html=1;rounded=0;entryX=0;entryY=0;entryDx=0;entryDy=0;" edge="1" parent="1" source="yw6frmniTJjpFVmSC9h--1" target="yw6frmniTJjpFVmSC9h--4">
          <mxGeometry width="50" height="50" relative="1" as="geometry">
            <mxPoint x="265" y="440" as="sourcePoint" />
            <mxPoint x="315" y="390" as="targetPoint" />
            <Array as="points">
              <mxPoint x="245" y="390" />
              <mxPoint x="315" y="400" />
            </Array>
          </mxGeometry>
        </mxCell>
        <mxCell id="yw6frmniTJjpFVmSC9h--15" value="" style="curved=1;endArrow=classic;html=1;rounded=0;entryX=1;entryY=0;entryDx=0;entryDy=0;exitX=0.5;exitY=1;exitDx=0;exitDy=0;" edge="1" parent="1" source="yw6frmniTJjpFVmSC9h--5" target="yw6frmniTJjpFVmSC9h--4">
          <mxGeometry width="50" height="50" relative="1" as="geometry">
            <mxPoint x="630" y="360" as="sourcePoint" />
            <mxPoint x="742" y="470" as="targetPoint" />
            <Array as="points">
              <mxPoint x="615" y="380" />
              <mxPoint x="580" y="400" />
            </Array>
          </mxGeometry>
        </mxCell>
        <mxCell id="yw6frmniTJjpFVmSC9h--18" value="" style="endArrow=classic;html=1;rounded=0;exitX=0.25;exitY=1;exitDx=0;exitDy=0;entryX=0.558;entryY=-0.017;entryDx=0;entryDy=0;entryPerimeter=0;" edge="1" parent="1" source="yw6frmniTJjpFVmSC9h--2" target="yw6frmniTJjpFVmSC9h--4">
          <mxGeometry width="50" height="50" relative="1" as="geometry">
            <mxPoint x="425" y="410" as="sourcePoint" />
            <mxPoint x="475" y="360" as="targetPoint" />
          </mxGeometry>
        </mxCell>
        <mxCell id="yw6frmniTJjpFVmSC9h--19" value="" style="endArrow=classic;html=1;rounded=0;exitX=0.625;exitY=1;exitDx=0;exitDy=0;exitPerimeter=0;" edge="1" parent="1" source="yw6frmniTJjpFVmSC9h--3" target="yw6frmniTJjpFVmSC9h--4">
          <mxGeometry width="50" height="50" relative="1" as="geometry">
            <mxPoint x="408" y="400" as="sourcePoint" />
            <mxPoint x="375" y="449" as="targetPoint" />
          </mxGeometry>
        </mxCell>
        <mxCell id="yw6frmniTJjpFVmSC9h--20" value="" style="endArrow=classic;html=1;rounded=0;exitX=0;exitY=1;exitDx=0;exitDy=0;entryX=0.5;entryY=0;entryDx=0;entryDy=0;" edge="1" parent="1" source="yw6frmniTJjpFVmSC9h--4" target="yw6frmniTJjpFVmSC9h--6">
          <mxGeometry width="50" height="50" relative="1" as="geometry">
            <mxPoint x="295" y="470" as="sourcePoint" />
            <mxPoint x="345" y="420" as="targetPoint" />
          </mxGeometry>
        </mxCell>
        <mxCell id="yw6frmniTJjpFVmSC9h--21" value="" style="endArrow=classic;html=1;rounded=0;entryX=0.361;entryY=0;entryDx=0;entryDy=0;exitX=1;exitY=1;exitDx=0;exitDy=0;entryPerimeter=0;" edge="1" parent="1" source="yw6frmniTJjpFVmSC9h--4" target="yw6frmniTJjpFVmSC9h--7">
          <mxGeometry width="50" height="50" relative="1" as="geometry">
            <mxPoint x="645" y="510" as="sourcePoint" />
            <mxPoint x="535" y="530" as="targetPoint" />
          </mxGeometry>
        </mxCell>
        <mxCell id="yw6frmniTJjpFVmSC9h--23" value="" style="endArrow=classic;html=1;rounded=0;entryX=0;entryY=0;entryDx=0;entryDy=0;exitX=0.5;exitY=1;exitDx=0;exitDy=0;" edge="1" parent="1" source="yw6frmniTJjpFVmSC9h--6" target="yw6frmniTJjpFVmSC9h--8">
          <mxGeometry width="50" height="50" relative="1" as="geometry">
            <mxPoint x="250" y="620" as="sourcePoint" />
            <mxPoint x="300" y="570" as="targetPoint" />
          </mxGeometry>
        </mxCell>
        <mxCell id="yw6frmniTJjpFVmSC9h--24" value="" style="endArrow=classic;html=1;rounded=0;exitX=0.5;exitY=1;exitDx=0;exitDy=0;entryX=0.5;entryY=0;entryDx=0;entryDy=0;" edge="1" parent="1" source="yw6frmniTJjpFVmSC9h--7">
          <mxGeometry width="50" height="50" relative="1" as="geometry">
            <mxPoint x="625" y="550" as="sourcePoint" />
            <mxPoint x="515" y="580" as="targetPoint" />
          </mxGeometry>
        </mxCell>
        <mxCell id="yw6frmniTJjpFVmSC9h--25" value="" style="endArrow=classic;html=1;rounded=0;exitX=0.5;exitY=1;exitDx=0;exitDy=0;entryX=0.5;entryY=0;entryDx=0;entryDy=0;" edge="1" parent="1" source="yw6frmniTJjpFVmSC9h--8" target="yw6frmniTJjpFVmSC9h--9">
          <mxGeometry width="50" height="50" relative="1" as="geometry">
            <mxPoint x="615" y="690" as="sourcePoint" />
            <mxPoint x="505" y="720" as="targetPoint" />
          </mxGeometry>
        </mxCell>
        <mxCell id="yw6frmniTJjpFVmSC9h--26" value="" style="endArrow=classic;html=1;rounded=0;exitX=0;exitY=1;exitDx=0;exitDy=0;entryX=0.5;entryY=0;entryDx=0;entryDy=0;" edge="1" parent="1" source="yw6frmniTJjpFVmSC9h--9" target="yw6frmniTJjpFVmSC9h--10">
          <mxGeometry width="50" height="50" relative="1" as="geometry">
            <mxPoint x="285" y="760" as="sourcePoint" />
            <mxPoint x="285" y="810" as="targetPoint" />
          </mxGeometry>
        </mxCell>
        <mxCell id="yw6frmniTJjpFVmSC9h--27" value="" style="endArrow=classic;html=1;rounded=0;entryX=0.5;entryY=0;entryDx=0;entryDy=0;" edge="1" parent="1">
          <mxGeometry width="50" height="50" relative="1" as="geometry">
            <mxPoint x="425" y="760" as="sourcePoint" />
            <mxPoint x="424.5" y="790" as="targetPoint" />
            <Array as="points">
              <mxPoint x="424.5" y="760" />
            </Array>
          </mxGeometry>
        </mxCell>
        <mxCell id="yw6frmniTJjpFVmSC9h--30" value="" style="endArrow=classic;html=1;rounded=0;exitX=1;exitY=1;exitDx=0;exitDy=0;entryX=0.5;entryY=0;entryDx=0;entryDy=0;" edge="1" parent="1" source="yw6frmniTJjpFVmSC9h--9" target="yw6frmniTJjpFVmSC9h--11">
          <mxGeometry width="50" height="50" relative="1" as="geometry">
            <mxPoint x="535" y="750" as="sourcePoint" />
            <mxPoint x="535" y="800" as="targetPoint" />
          </mxGeometry>
        </mxCell>
      </root>
    </mxGraphModel>
  </diagram>
</mxfile>
